<svg xmlns="http://www.w3.org/2000/svg" viewBox="0 0 512 512">
  <!-- Fondo circular -->
  <circle cx="256" cy="256" r="256" fill="#3880ff"/>
  
  <!-- Llave inglesa -->
  <path d="M352 176c-26.5 0-48 21.5-48 48s21.5 48 48 48c6.3 0 12.3-1.2 17.8-3.4l-82.9 82.9c-4.7 4.7-4.7 12.3 0 17l28.3 28.3c4.7 4.7 12.3 4.7 17 0l82.9-82.9c-2.2 5.5-3.4 11.5-3.4 17.8 0 26.5 21.5 48 48 48s48-21.5 48-48-21.5-48-48-48c-6.3 0-12.3 1.2-17.8 3.4l-82.9-82.9c4.7-4.7 4.7-12.3 0-17l-28.3-28.3c-4.7-4.7-12.3-4.7-17 0l-82.9 82.9c2.2-5.5 3.4-11.5 3.4-17.8 0-26.5-21.5-48-48-48z" fill="none" stroke="#fff" stroke-width="24" stroke-linecap="round" stroke-linejoin="round" transform="translate(-60, -60)"/>
  
  <!-- Relámpago -->
  <path d="M288 128L192 256h64l-32 128 128-160h-64z" fill="#ffc409"/>
</svg>