<svg xmlns="http://www.w3.org/2000/svg" viewBox="0 0 512 512">
  <!-- Fondo -->
  <rect width="512" height="512" rx="80" fill="#3880ff"/>
  
  <!-- Llave inglesa estilizada -->
  <g transform="translate(100, 80)">
    <!-- Mango -->
    <rect x="130" y="200" width="60" height="180" rx="10" fill="#fff"/>
    <!-- Cabeza -->
    <path d="M100 100 L160 40 L220 100 L220 160 C220 200 180 220 160 220 C140 220 100 200 100 160 Z" fill="#fff"/>
    <!-- Apertura -->
    <path d="M140 80 L160 60 L180 80 L180 140 C180 160 170 170 160 170 C150 170 140 160 140 140 Z" fill="#3880ff"/>
  </g>
  
  <!-- Relámpago -->
  <path d="M280 120L200 240h56l-28 112 112-144h-56z" fill="#ffc409"/>
</svg>